<svg xmlns="http://www.w3.org/2000/svg" viewBox="0 0 511.91 202.13"><defs><style>.cls-1{fill:#fff;}</style></defs><title>ibm</title><g id="Layer_2" data-name="Layer 2"><g id="Layer_1-2" data-name="Layer 1"><path class="cls-1" d="M394.05,199.53c.61,1.48,1.17,2.56,3.09,2.58s2.62-.9,3.14-2.47c1.14-3.43,2.36-6.84,3.75-10.84-1.19-.14-1.83-.27-2.48-.29C389.39,188.18,389.34,188.27,394.05,199.53Z"/><path class="cls-1" d="M507.58,188.44c-19.45.15-38.91.07-58.37.07-9.65,0-9.5,0-9.47,9.74,0,3.16,1,3.9,4,3.85,10.48-.16,20.95-.06,31.43-.06h26.94c9.72,0,9.55,0,9.67-9.53C511.82,189.13,510.77,188.42,507.58,188.44Z"/><path class="cls-1" d="M251.57,188.65l-129.83-.14c-9.55,0-9.41,0-9.42,9.7,0,3,.75,3.91,3.87,3.9,36.29-.11,72.57,0,108.86-.13,11.86,0,22.1-4.7,32.05-13.33Z"/><path class="cls-1" d="M350.19,188.43c-19.32.18-38.64.08-58,.08-9.67,0-9.52,0-9.49,9.75,0,3.16,1,3.89,4,3.85,10.66-.17,21.32-.07,32-.07h27c9.16,0,8.93,0,9.21-9C355,189.14,353.83,188.39,350.19,188.43Z"/><path class="cls-1" d="M282.74,171.34c0,3.17,1,3.91,4,3.86,10.66-.16,21.32-.06,32-.06h27c9.16,0,9,0,9.2-9,.11-3.76-.92-4.72-4.67-4.68-19.33.2-38.65.1-58,.09C282.59,161.57,282.75,161.58,282.74,171.34Z"/><path class="cls-1" d="M444.94,94.63c10.15-.31,20.31-.1,30.47-.1,9.45,0,9.29,0,9.46-9.31.06-3.4-.71-4.5-4.32-4.48-25,.17-50,.07-74.94.13-1.35,0-3-.82-4.08.86-1.16,3.25-2.26,6.52-3.52,9.73-1,2.6,0,3.13,2.44,3.1,8.29-.09,16.59,0,24.89,0,10.67,0,10.67,0,13.41-10.61,2,1.51,1.16,3.71,1,5.48C439.3,93.55,440.78,94.75,444.94,94.63Z"/><path class="cls-1" d="M481.6,107.71c-6.47.11-12.94,0-19.42,0H449.24c-9.62,0-9.43,0-9.52,9.74,0,3.52,1.27,4.07,4.32,4,10.29-.15,20.59-.06,30.88-.06,10.61,0,10.51,0,9.94-10.74C484.72,108.21,483.85,107.67,481.6,107.71Z"/><path class="cls-1" d="M443.48,148.35c10.45-.13,20.9-.06,31.36-.06s10.5,0,10-10.67c-.11-2.49-.95-3-3.21-3-6.3.12-12.61,0-18.92,0H449.79c-10.31,0-10.17,0-10.05,10.12C439.78,147.75,440.76,148.38,443.48,148.35Z"/><path class="cls-1" d="M383.05,94.53c11.35,0,11.35,0,6.72-10.76.17-4-2.83-2.91-4.91-2.91q-33-.08-65.92,0c-9.37,0-9.19,0-9.33,9.38-.06,3.54,1,4.44,4.47,4.4,13.14-.16,26.29,0,39.44,0,2.73-1.17,1.34-3.61,1.66-5.51.23-1.37.05-2.93,1.46-3.59,0,.08,0,.16.06.25a1.33,1.33,0,0,0,0,2c.85,5.53,3.84,7.49,9.53,6.86S377.42,94.53,383.05,94.53Z"/><path class="cls-1" d="M117.34,40.77c25.31-.15,50.61-.08,75.92-.08h74.91c1.17,0,2.33,0,3.5,0,.9,0,1.45-.23,1.55-1.37.44-5.1-5.76-12.17-10.79-12.18L121.09,27c-8.76,0-8.5,0-8.81,9C112.14,40.13,113.61,40.79,117.34,40.77Z"/><path class="cls-1" d="M268.17,161.66c-25.15.16-50.31.08-75.47.08v-.17H121.24c-8.88,0-8.66,0-8.94,8.78-.13,4,1,4.89,4.92,4.88,47.14-.14,94.29-.09,141.44-.09,9,0,9,0,12.53-8.48.07-.15.13-.31.21-.45C273.46,162.45,272.14,161.63,268.17,161.66Z"/><path class="cls-1" d="M117.25,13.86c45.13-.14,90.27-.09,135.4-.09h3.73c.12-1.77-1-2.06-1.74-2.61-9.86-7.61-21.12-11-33.49-11H121.22c-8.87,0-8.63,0-8.94,8.87C112.15,13,113.4,13.87,117.25,13.86Z"/><path class="cls-1" d="M265.21,121.44c-2.55-3-4.34-5.36-6.34-7.49-4.12-4.39-8.85-6.31-15.3-6.23-31.6.35-63.21.07-94.82,0-9.94,0-9.82,0-9.64,10.1.06,2.85.88,3.65,3.7,3.64C183.21,121.41,223.62,121.44,265.21,121.44Z"/><path class="cls-1" d="M139.09,89.33c-.13,4,.87,5.32,5.13,5.3,32.63-.19,65.27-.46,97.9.13,8.58.16,14.21-3,19.12-9.1l3.9-4.82H147.83C139.17,80.84,139.38,80.84,139.09,89.33Z"/><path class="cls-1" d="M4.73,40.79c28.33-.17,56.67-.1,85-.1,9.44,0,9.27,0,9.41-9.36.06-3.51-1-4.47-4.44-4.42C79.87,27.1,65,27,50.2,27H9.2C0,27,.23,27,0,36.09-.06,39.84,1,40.81,4.73,40.79Z"/><path class="cls-1" d="M94.18,0C66,.19,37.87.11,9.71.11,0,.11.11.11,0,9.74c0,3.36,1,4.14,4.23,4.1,15-.16,30-.07,45-.07h41c8.87,0,8.65,0,8.92-8.8C99.28,1,98.11,0,94.18,0Z"/><path class="cls-1" d="M508.36,26.93q-43.73.13-87.46.05c-1.56,0-2.92,0-3.41,2-.94,3.83-2.83,7.4-3.24,11.73h87.64c10.25,0,10.15,0,9.87-10.38C511.69,27.7,511,26.93,508.36,26.93Z"/><path class="cls-1" d="M94.65,188.43c-15,.18-30,.08-45,.08h-41c-8.65,0-8.39,0-8.72,8.56-.17,4.36,1.42,5.08,5.36,5.06C33.51,202,61.65,202,89.79,202c9.37,0,9.16,0,9.36-9.34C99.23,189,98,188.39,94.65,188.43Z"/><path class="cls-1" d="M5.33,175.23c28-.17,56-.09,83.94-.09,10,0,9.85,0,9.87-9.81,0-3.19-1-3.85-4-3.82-15,.14-30,.06-45,.06q-20.73,0-41.47,0c-8.66,0-8.4,0-8.73,8.58C-.15,174.46,1.36,175.25,5.33,175.23Z"/><path class="cls-1" d="M287.35,40.79c14.14-.25,28.28-.1,42.41-.1h37.92c8.94,0,8.67.08,6.3-8.62-1.14-4.16-3.06-5.22-7.2-5.18-24.95.2-49.9.1-74.84.1-9.18,0-9,0-9.21,9C282.65,39.67,283.49,40.86,287.35,40.79Z"/><path class="cls-1" d="M502.09,13.77c10.2,0,10.12,0,9.66-10.51-.1-2.31-.63-3.21-3.09-3.2Q469,.17,429.29.1c-1.55,0-3-.06-3.54,1.87-1.09,3.8-2.26,7.58-3.53,11.8h79.87Z"/><path class="cls-1" d="M286,13.81c27-.06,54,0,81.91,0-1-3.24-2.09-6-2.65-8.9C364.55,1.1,362.7,0,358.81,0c-22,.21-44,.11-66,.11-10.74,0-10.64,0-10.09,10.68C282.88,13.29,283.74,13.81,286,13.81Z"/><path class="cls-1" d="M409.8,67.72c11.64-.26,23.3-.09,35-.09h31c9.12,0,8.91,0,9.15-9.1.1-3.76-.92-4.74-4.68-4.7-20.31.19-40.63.09-60.94.09-9.59,0-9.45,0-12.56,9.36C405.56,66.68,405.79,67.8,409.8,67.72Z"/><path class="cls-1" d="M319.25,53.92c-9.71,0-9.55,0-9.64,9.63,0,3.32.92,4.2,4.17,4.15,11.15-.19,22.3-.07,33.45-.07h28c9.8,0,9.61.05,7.1-9.21-1-3.54-2.46-4.63-6.13-4.59C357.19,54,338.22,53.92,319.25,53.92Z"/><path class="cls-1" d="M507,161.49c-19.29.18-38.58.09-57.87.09-9.45,0-9.25,0-9.42,9.35-.07,3.7,1.28,4.33,4.57,4.28,10.47-.19,20.95-.07,31.43-.07h26.94c9.1,0,8.87,0,9.13-9.08C511.91,162.15,510.62,161.46,507,161.49Z"/><path class="cls-1" d="M426.65,107.71c-9.82.11-19.64,0-29.46,0h-24c-9.76,0-9.62,0-6.78,9.19,1,3.35,2.42,4.68,6.15,4.62,14.65-.26,29.3-.11,43.94-.11,10.21,0,10-.07,13.34-9.79C431.21,107.74,429.68,107.67,426.65,107.71Z"/><path class="cls-1" d="M273.89,57.48c.06-3-.83-3.68-3.62-3.61-7,.17-14,.05-21,.05h-15c-10.06,0-9.92,0-9.89,9.88,0,3.1.87,3.94,3.94,3.9,11.82-.18,23.65-.07,35.48-.07C273.8,67.63,273.66,67.62,273.89,57.48Z"/><path class="cls-1" d="M272.88,139.71c-.16-4-2.08-5.11-6-5-11,.24-21.91,0-32.87,0-9.87,0-9.75,0-9.59,10,0,2.84.85,3.71,3.68,3.64,7-.18,13.95-.06,20.92-.06,6.64,0,13.3-.26,19.92.1,4.31.23,5.8-1.08,4.63-5.26A15,15,0,0,1,272.88,139.71Z"/><path class="cls-1" d="M180.51,134.6c-10.48.18-21,.07-31.46.07s-10.25,0-9.93,10.29c.08,2.62.83,3.45,3.44,3.39,6.32-.16,12.65,0,19,0H175c9.61,0,9.46,0,9.45-9.82C184.46,135.33,183.54,134.55,180.51,134.6Z"/><path class="cls-1" d="M179.87,53.82c-10.33.3-20.66.1-31,.1-10,0-9.89,0-9.79,10,0,3.29,1.24,3.83,4.11,3.74,6.16-.2,12.33-.06,18.5-.06h13.49c9.25,0,9.07,0,9.28-9C184.55,55,183.78,53.71,179.87,53.82Z"/><path class="cls-1" d="M350.37,107.67c-10.31.21-20.63.07-30.95.07s-10.13,0-9.8,10.44c.09,2.73,1,3.36,3.51,3.31,6.32-.14,12.64,0,19,0h13.48c9.34,0,9.15,0,9.32-9.45C355,108.34,353.75,107.6,350.37,107.67Z"/><path class="cls-1" d="M72.18,84.2c-.05-3.1-1.27-3.47-3.84-3.41-6.15.14-12.3,0-18.45,0H36.43c-9.62,0-9.45,0-9.47,9.76,0,3.49,1.29,4.06,4.37,4,10.3-.17,20.61-.06,30.91-.06S72.37,94.53,72.18,84.2Z"/><path class="cls-1" d="M72.17,111.25c0-2.9-1-3.6-3.71-3.56-10.46.14-20.93,0-31.4,0-10.74,0-10.65,0-10.07,10.66.14,2.43.92,3.12,3.23,3.08,6.48-.11,13,0,19.44,0H62.12C72.46,121.44,72.34,121.44,72.17,111.25Z"/><path class="cls-1" d="M67.93,134.61c-10.3.16-20.6.06-30.9.06-10.78,0-10.68,0-10,10.64.15,2.49,1,3.06,3.29,3,6.48-.1,13,0,19.43,0h13c9.61,0,9.42,0,9.52-9.72C72.23,135.08,71,134.56,67.93,134.61Z"/><path class="cls-1" d="M30.25,67.67c6.31-.12,12.63,0,18.94,0h13c10.33,0,10.2,0,10-10.19,0-2.92-1-3.62-3.74-3.58C58,54,47.5,53.92,37,53.92c-10.75,0-10.66,0-10,10.7C27.14,67.07,27.94,67.71,30.25,67.67Z"/><path class="cls-1" d="M313.26,148.35c6.15-.19,12.31-.06,18.47-.06H345.2c9.9,0,9.77,0,9.68-10.07,0-2.84-.8-3.65-3.63-3.61-10.65.16-21.29.06-31.94.06-9.93,0-9.82,0-9.69,10C309.66,147.46,310.4,148.44,313.26,148.35Z"/><path class="cls-1" d="M383.15,134.67c-11.64,0-11.61,0-7.12,11.08.71,1.75,1.52,2.61,3.58,2.6q17.75-.15,35.48,0a2.93,2.93,0,0,0,3.27-2.31c1.14-3.63,2.32-7.24,3.64-11.36Z"/><path class="cls-1" d="M391.6,161.57c-10.29,0-10.27,0-7,9.71.7,2.05,1,4.06,4.09,3.93,5.81-.25,11.63-.1,17.45-.05,1.47,0,2.58-.24,3.07-1.83,1.18-3.76,2.43-7.5,3.81-11.76Z"/></g></g></svg>